#!OML:ASF X:\für Bonn\!DataBase\2005_08_10_Bjorn_Final\c3d\bjorn.ASF
:FULLY-SPECIFIED
:DEGREES
357
root 2.3394 18.7771 6.78147 -182.441 10.3362 176.455
lowerback 4.82513 0.48481 1.80443
upperback 11.8964 2.40087 -1.99689
thorax 10.0925 2.13159 -2.92891
lowerneck -0.25281 -0.115021 5.37014
upperneck 24.1491 3.67423 -7.75241
head 7.63339 2.46203 -3.13516
rclavicle -1.19271e-014 2.98177e-015
rhumerus -403.594 8.33528 276.349
rradius 48.7811
rwrist 2.01942
rhand -17.6977 11.5918
rfingers 7.12502
rthumb 8.56212 -18.2146
lclavicle -1.19271e-014 2.98177e-015
lhumerus -84.4356 -47.6451 118.23
lradius 53.7708
lwrist -2.97384
lhand 6.85435 -8.02224
lfingers 7.12502
lthumb 32.137 19.1561
rfemur -12.288 -1.7024 13.1059
rtibia 38.7525
rfoot -20.8174 16.8572
rtoes -0.0665544
lfemur -21.4709 -5.34232 -12.2352
ltibia 44.7424
lfoot -13.5992 7.8686
ltoes -24.8845
358
root 2.3302 18.7582 6.86587 -182.569 10.1779 176.395
lowerback 4.88435 0.429757 1.81934
upperback 11.9751 2.34813 -1.96511
thorax 10.1428 2.11615 -2.90428
lowerneck -0.566462 -0.116969 5.34222
upperneck 24.4201 3.70779 -7.77668
head 7.78277 2.4708 -3.13547
rclavicle -6.55989e-015 -6.16232e-015
rhumerus -402.292 9.32614 276.397
rradius 46.964
rwrist 2.75286
rhand -16.8727 11.5211
rfingers 7.12502
rthumb 9.3582 -18.2511
lclavicle -6.55989e-015 -6.16232e-015
lhumerus -85.2711 -48.6691 119.876
lradius 53.4487
lwrist -2.76362
lhand 9.64109 -6.47332
lfingers 7.12502
lthumb 34.7858 20.1325
rfemur -12.7173 -1.66648 13.078
rtibia 39.3096
rfoot -20.9139 16.672
rtoes -0.197705
lfemur -20.9955 -5.0915 -12.664
ltibia 45.897
lfoot -14.0104 7.74833
ltoes -24.8848
359
root 2.32017 18.7386 6.9488 -182.692 10.0385 176.397
lowerback 4.93135 0.380705 1.86737
upperback 12.0536 2.29739 -1.89129
thorax 10.1994 2.10127 -2.85259
lowerneck -0.854279 -0.120153 5.27589
upperneck 24.6836 3.74637 -7.79936
head 7.92563 2.48006 -3.12831
rclavicle -1.3418e-014 2.48481e-014
rhumerus -400.853 10.0197 276.615
rradius 45.0207
rwrist 3.76571
rhand -15.6931 11.5378
rfingers 7.12502
rthumb 10.4962 -18.1802
lclavicle -1.3418e-014 2.48481e-014
lhumerus -85.4509 -49.4619 120.877
lradius 53.1264
lwrist -1.53325
lhand 12.775 -4.16081
lfingers 7.12502
lthumb 37.7534 21.7051
rfemur -13.1115 -1.61518 13.1139
rtibia 39.8232
rfoot -20.9852 16.4695
rtoes -0.254413
lfemur -20.4766 -4.81924 -13.0207
ltibia 46.9996
lfoot -14.364 7.50161
ltoes -24.6935
360
root 2.31058 18.7198 7.03083 -182.84 9.88462 176.482
lowerback 5.01412 0.330603 2.00729
upperback 12.1418 2.24757 -1.80081
thorax 10.2491 2.09643 -2.83496
lowerneck -1.10581 -0.131914 5.20669
upperneck 24.9091 3.76393 -7.80135
head 8.0479 2.48075 -3.1152
rclavicle -2.25621e-014 1.19271e-014
rhumerus -399.365 10.4332 276.909
rradius 43.0783
rwrist 4.93016
rhand -14.1925 11.603
rfingers 7.12502
rthumb 11.9435 -18.0363
lclavicle -2.25621e-014 1.19271e-014
lhumerus -85.2623 -50.204 121.528
lradius 52.7135
lwrist -0.130873
lhand 15.5772 -1.34463
lfingers 7.12502
lthumb 40.3947 23.7611
rfemur -13.4355 -1.57621 13.24
rtibia 40.2876
rfoot -21.0477 16.2727
rtoes -0.352084
lfemur -19.8782 -4.55923 -13.282
ltibia 48.0353
lfoot -14.6526 7.14201
ltoes -24.3739
361
root 2.30076 18.7017 7.1112 -182.994 9.74173 176.631
lowerback 5.09809 0.279788 2.20268
upperback 12.239 2.19728 -1.69254
thorax 10.3101 2.09683 -2.82876
lowerneck -1.2849 -0.151745 5.20511
upperneck 25.0525 3.77626 -7.89497
head 8.13105 2.47784 -3.14541
rclavicle 1.72943e-014 -4.96962e-015
rhumerus -397.867 10.6912 277.257
rradius 41.1655
rwrist 6.22592
rhand -12.581 11.7805
rfingers 7.12502
rthumb 13.4971 -17.7621
lclavicle 1.72943e-014 -4.96962e-015
lhumerus -84.5991 -50.8476 121.723
lradius 52.1274
lwrist 0.965786
lhand 17.9552 1.64007
lfingers 7.12502
lthumb 42.6256 26.017
rfemur -13.695 -1.54473 13.4336
rtibia 40.6682
rfoot -21.0635 16.0898
rtoes -0.421443
lfemur -19.2118 -4.27646 -13.4623
ltibia 48.9987
lfoot -14.8848 6.67637
ltoes -23.7375
362
root 2.29141 18.6869 7.18949 -183.125 9.59607 176.768
lowerback 5.13976 0.240914 2.38267
upperback 12.3188 2.15693 -1.58422
thorax 10.3761 2.09821 -2.81267
lowerneck -1.36591 -0.176783 5.17365
upperneck 25.1312 3.77296 -7.95315
head 8.17256 2.47018 -3.15973
rclavicle -2.09718e-014 9.34288e-015
rhumerus -396.472 10.7744 277.654
rradius 39.3963
rwrist 7.75578
rhand -10.9411 12.0599
rfingers 7.12502
rthumb 15.0773 -17.371
lclavicle -2.09718e-014 9.34288e-015
lhumerus -83.4524 -51.3972 121.42
lradius 51.3507
lwrist 1.38605
lhand 19.945 4.30071
lfingers 7.12502
lthumb 44.4838 28.0007
rfemur -13.9329 -1.53491 13.6101
rtibia 40.9597
rfoot -21.021 15.8969
rtoes -0.502689
lfemur -18.5267 -4.02923 -13.6484
ltibia 49.8787
lfoot -15.1085 6.22355
ltoes -23.218
363
root 2.28256 18.6808 7.26582 -183.226 9.45453 176.856
lowerback 5.15233 0.206148 2.50203
upperback 12.3729 2.11523 -1.48645
thorax 10.4276 2.09013 -2.77413
lowerneck -1.3667 -0.202882 5.15388
upperneck 25.1607 3.77487 -8.04435
head 8.1836 2.46584 -3.18706
rclavicle 1.99779e-014 -1.15295e-014
rhumerus -395.06 10.5934 278.152
rradius 37.6042
rwrist 9.70808
rhand -9.39523 12.5472
rfingers 7.12502
rthumb 16.566 -16.7657
lclavicle 1.99779e-014 -1.15295e-014
lhumerus -81.7182 -51.7982 120.497
lradius 50.3898
lwrist 0.968982
lhand 21.6082 6.43208
lfingers 7.12502
lthumb 46.0302 29.514
rfemur -14.1556 -1.52546 13.7348
rtibia 41.1572
rfoot -20.9293 15.7183
rtoes -0.455121
lfemur -17.8333 -3.79248 -13.8767
ltibia 50.658
lfoot -15.3414 5.77472
ltoes -22.486
